inDegrees=no
num_controls=7
num_derivatives=13
num_iterations=278
num_multipliers=7
num_parameters=0
num_slacks=7
num_states=26
objective=0.441590
objective_accelerations=0.000000
objective_balance=0.003473
objective_effort=0.034597
objective_height=0.306936
objective_ligament=0.096583
solver_duration=3926.131933
status=Solve_Succeeded
success=true
DataType=double
version=3
OpenSimVersion=4.5
endheader
time	/jointset/ground_pelvis/pelvis_tilt/value	/jointset/ground_pelvis/pelvis_tx/value	/jointset/ground_pelvis/pelvis_ty/value	/jointset/hip_l/hip_flexion_l/value	/jointset/hip_l/hip_adduction_l/value	/jointset/hip_l/hip_rotation_l/value	/jointset/back/lumbar_extension/value	/jointset/patellofemoral_l/patellar_flexion_l/value	/jointset/knee_l/knee_flexion_l/value	/jointset/knee_l/knee_adduction_l/value	/jointset/knee_l/knee_rotation_l/value	/jointset/ankle_l/ankle_angle_l/value	/jointset/subtalar_l/subtalar_angle_l/value	/jointset/ground_pelvis/pelvis_tilt/speed	/jointset/ground_pelvis/pelvis_tx/speed	/jointset/ground_pelvis/pelvis_ty/speed	/jointset/hip_l/hip_flexion_l/speed	/jointset/hip_l/hip_adduction_l/speed	/jointset/hip_l/hip_rotation_l/speed	/jointset/back/lumbar_extension/speed	/jointset/patellofemoral_l/patellar_flexion_l/speed	/jointset/knee_l/knee_flexion_l/speed	/jointset/knee_l/knee_adduction_l/speed	/jointset/knee_l/knee_rotation_l/speed	/jointset/ankle_l/ankle_angle_l/speed	/jointset/subtalar_l/subtalar_angle_l/speed	/forceset/tau_hip_flexion_l	/forceset/tau_hip_adduction_l	/forceset/tau_hip_rotation_l	/forceset/tau_knee_flexion_l	/forceset/tau_ankle_angle_l	/forceset/tau_subtalar_angle_l	/forceset/tau_lumbar_extension	lambda_cid13_p0	lambda_cid13_p1	lambda_cid13_p2	lambda_cid13_p3	lambda_cid13_p4	lambda_cid13_p5	lambda_cid14_p0	/jointset/ground_pelvis/pelvis_tilt/accel	/jointset/ground_pelvis/pelvis_tx/accel	/jointset/ground_pelvis/pelvis_ty/accel	/jointset/hip_l/hip_flexion_l/accel	/jointset/hip_l/hip_adduction_l/accel	/jointset/hip_l/hip_rotation_l/accel	/jointset/back/lumbar_extension/accel	/jointset/patellofemoral_l/patellar_flexion_l/accel	/jointset/knee_l/knee_flexion_l/accel	/jointset/knee_l/knee_adduction_l/accel	/jointset/knee_l/knee_rotation_l/accel	/jointset/ankle_l/ankle_angle_l/accel	/jointset/subtalar_l/subtalar_angle_l/accel	gamma_cid13_p0	gamma_cid13_p1	gamma_cid13_p2	gamma_cid13_p3	gamma_cid13_p4	gamma_cid13_p5	gamma_cid14_p0
1.5	-0.1387368813468975	-0.07584529671396295	0.8407811392179104	0.8464803423271701	-0.2980106303813958	-0.189505975979808	-0.959894468741418	0.6391201163772042	0.6391201163771878	-0.07546528191618121	-0.174311848370152	-0.01737281157587382	-0.009117012377624899	0.5678215965702544	0.01025053874792654	0.1131063618419969	-0.8066967288036284	0.06784116643232513	-0.1066108852420931	-0.005614759530684367	-0.2495628247404503	-0.2495628247403039	0.09498807808240201	0.01835855152465304	0.005193557985927403	0.07243002601286685	-0.3710810536063748	0.03484737823443686	-0.005576646459282211	-0.1182688189399873	0.09309845004973617	0.07899514353924549	0.4147928543335796	-16.7146348050289	-31.90697728332282	5.233353417321934	-4.114460345301215	-753.2442144142726	-90.59034155760379	-19.9631451041191	1.404698173885687	0.4118672646492854	0.7105307488730851	-3.810240321362192	0.9618909856332147	-1.47940266829476	0.4557251333722261	-2.766906625709843	-2.766906625710119	1.586116331252737	0.08427753124672446	-0.08635158520378158	0.9743715089431109	2.147227465482258e-07	4.825601237577012e-08	-2.324606975570517e-09	-9.207882297593207e-08	-2.025179054323426e-09	2.406531588761912e-07	6.734408019723896e-08
1.51	-0.1329918778387854	-0.07572155394251764	0.841947424845177	0.8382227950303609	-0.2972916963907212	-0.1906380852863776	-0.959921578830277	0.6364836570613864	0.63648365706138	-0.07445551217018226	-0.1741232999827437	-0.01732807435450368	-0.008352794786311535	0.5809039268070869	0.01456827475889615	0.1201375563962963	-0.8449487419086309	0.07516446766249883	-0.1190623796489838	0.0007381424723676534	-0.278031506286461	-0.2780315062863002	0.1049832113134735	0.01938372892461564	0.003450684549855985	0.07950295081070802	-0.3691675314585021	0.03338170107849854	-0.005627057635730193	-0.1219619513958209	0.09862706931965018	0.07772346722943296	0.4160719435584805	-15.08822497141636	-31.60613404240309	5.147323461954574	-5.324517636897841	-755.2087546348757	-90.31193998077708	-20.03712109748444	1.218713696894927	0.4522670837859626	0.6974130751613876	-3.853095492460628	0.5003596632873993	-1.015790974388793	0.8068828419362372	-2.932207153366672	-2.932207153364434	0.4088075524192417	0.1165917482237928	-0.2637377752740422	0.4371504610896338	3.017130375615232e-08	-4.154221919143526e-08	1.993721784318434e-07	-2.657974149618054e-08	-6.553746805298375e-08	1.175891723925126e-07	-1.65225524692368e-08
1.52	-0.1271243083786414	-0.07555252574806998	0.8431836222712775	0.8295786448650219	-0.2965229673934438	-0.1918722631665042	-0.9598687978775196	0.6335534392832456	0.6335534392832466	-0.07340527194517957	-0.1739235090405664	-0.01730986237797939	-0.007545168447843072	0.5923347869764296	0.01930762334840051	0.1270887216087939	-0.8840173025092932	0.07780016775579716	-0.1270245999559804	0.01036344880200937	-0.3083145172052722	-0.3083145172050954	0.1030821738799384	0.02060706247868868	-0.0001114909848275932	0.08111177544394947	-0.3672540093106239	0.03191602392255745	-0.005677468812168697	-0.1256550838516458	0.1041556885895681	0.07645179091961887	0.4173510327833844	-13.47679086953138	-31.30103580063665	5.058750280145558	-6.510213006345767	-757.4036078097262	-90.05510579560085	-20.11882837017847	1.074404160387998	0.496189780356006	0.6945248805126751	-3.973549820494125	0.02437075825815965	-0.5815478483159888	1.110205998690322	-3.129772500269981	-3.12977250026995	-0.7931178016685478	0.1239087620688093	-0.450212004926532	-0.118448523976917	-5.476132075206079e-08	-1.696430485327864e-07	2.6693893541133e-07	1.00212544102666e-08	-1.767993842367826e-07	1.319553072072771e-08	-5.427621696347817e-08
1.53	-0.1211336642297513	-0.07533271877744714	0.8444904858284539	0.8205213881869715	-0.295755464596638	-0.1931660281964092	-0.9597217700944093	0.6303170064632073	0.6303170064632162	-0.07243822290925263	-0.173716916797851	-0.01733094057696831	-0.00675116541763257	0.6072453268842358	0.02484946092074038	0.1344310016169794	-0.9294602189077259	0.07450867818293724	-0.1314184043070648	0.01773180414015696	-0.3387429706304402	-0.3387429706304	0.08796146808429242	0.01995405581466014	-0.003873914709755412	0.07654368798024229	-0.3644582350240808	0.02835385281009081	-0.005713431724685956	-0.1287487181835523	0.1112760285380656	0.07611444287473994	0.4163786079326099	-11.08504252386123	-31.50860304774831	5.017938190707884	-9.610856667583864	-756.9001646894584	-90.43193137374922	-20.20820015257742	1.917078760094203	0.6125380817258992	0.7760462253766864	-5.133591397389028	-0.6846291113404481	-0.3218681007061083	0.353604749598832	-2.965012934616012	-2.965012934636543	-2.226537871931505	-0.2734592852608009	-0.3047248239764239	-0.7977105614136453	-3.384895083367333e-08	-3.384403880091671e-07	1.919925371861454e-07	1.591803439507815e-08	-3.387952793047907e-07	-7.136086958842021e-08	-4.303485277472101e-08
